<?xml version="1.0" encoding="UTF-8" standalone="no"?>
<svg
   xmlns:dc="http://purl.org/dc/elements/1.1/"
   xmlns:cc="http://creativecommons.org/ns#"
   xmlns:rdf="http://www.w3.org/1999/02/22-rdf-syntax-ns#"
   xmlns:svg="http://www.w3.org/2000/svg"
   xmlns="http://www.w3.org/2000/svg"
   viewBox="0 0 398.61749 163.265"
   height="163.265"
   width="398.61749"
   xml:space="preserve"
   version="1.1"
   id="svg2"><metadata
     id="metadata8"><rdf:RDF><cc:Work
         rdf:about=""><dc:format>image/svg+xml</dc:format><dc:type
           rdf:resource="http://purl.org/dc/dcmitype/StillImage" /><dc:title></dc:title></cc:Work></rdf:RDF></metadata><defs
     id="defs6"><clipPath
       id="clipPath16"
       clipPathUnits="userSpaceOnUse"><path
         id="path18"
         d="m 0,0 318.893,0 0,130.613 L 0,130.613 0,0 Z" /></clipPath><linearGradient
       id="linearGradient24"
       spreadMethod="pad"
       gradientTransform="matrix(0,130.61224,130.61224,0,159.44684,0)"
       gradientUnits="userSpaceOnUse"
       y2="0"
       x2="1"
       y1="0"
       x1="0"><stop
         id="stop26"
         offset="0"
         style="stop-opacity:1;stop-color:#148abd" /><stop
         id="stop28"
         offset="1"
         style="stop-opacity:1;stop-color:#3daaca" /></linearGradient><clipPath
       id="clipPath36"
       clipPathUnits="userSpaceOnUse"><path
         id="path38"
         d="m 0,130.612 318.894,0 L 318.894,0 0,0 0,130.612 Z" /></clipPath></defs><g
     transform="matrix(1.25,0,0,-1.25,0,163.265)"
     id="g10"><g
       id="g12"><g
         clip-path="url(#clipPath16)"
         id="g14"><g
           id="g20"><g
             id="g22"><path
               id="path30"
               style="fill:url(#linearGradient24);stroke:none"
               d="m 0,0 318.893,0 0,130.613 L 0,130.613 0,0 Z" /></g></g></g></g><g
       id="g32"><g
         clip-path="url(#clipPath36)"
         id="g34"><g
           transform="translate(62.1519,89.0712)"
           id="g40"><path
             id="path42"
             style="fill:#ffffff;fill-opacity:1;fill-rule:nonzero;stroke:none"
             d="m 0,0 c 0.34,-0.069 0.696,-0.102 1.069,-0.102 l 1.172,0 c 1.084,-0.069 2.188,-0.221 3.308,-0.458 1.12,-0.239 2.188,-0.56 3.207,-0.967 1.426,-0.544 2.782,-1.207 4.073,-1.986 1.287,-0.78 2.476,-1.68 3.562,-2.698 1.153,-1.086 2.189,-2.274 3.107,-3.563 0.915,-1.29 1.712,-2.647 2.391,-4.072 0.679,-1.493 1.187,-3.004 1.527,-4.531 0.339,-1.525 0.543,-3.071 0.612,-4.631 l 0,-45.613 c -0.746,-1.484 -5.459,-3.913 -8.857,0 l 0,47.547 c -0.206,1.966 -0.816,3.85 -1.835,5.65 -1.018,1.798 -2.341,3.308 -3.969,4.53 -0.748,0.611 -1.562,1.136 -2.442,1.578 -0.884,0.441 -1.8,0.798 -2.751,1.07 -0.679,0.135 -1.342,0.254 -1.985,0.356 -0.646,0.102 -1.307,0.153 -1.986,0.153 l -0.865,0 c -0.305,0 -0.627,-0.036 -0.967,-0.103 -1.018,-0.068 -1.985,-0.271 -2.901,-0.611 -0.916,-0.34 -1.818,-0.781 -2.698,-1.323 -1.222,-0.748 -2.325,-1.663 -3.308,-2.749 -0.985,-1.086 -1.851,-2.275 -2.597,-3.564 -0.68,-1.425 -1.155,-2.9 -1.426,-4.428 -0.272,-1.527 -0.373,-3.073 -0.305,-4.631 0.068,-2.035 0.474,-3.972 1.222,-5.801 0.746,-1.835 1.764,-3.532 3.054,-5.094 0.745,-0.679 1.544,-1.308 2.392,-1.882 0.849,-0.579 1.714,-1.038 2.597,-1.374 1.018,-0.407 2.051,-0.713 3.105,-0.917 1.052,-0.206 2.12,-0.305 3.207,-0.305 0.95,0 1.901,0.083 2.85,0.253 0.95,0.169 1.866,0.424 2.75,0.765 1.018,0.405 1.985,0.896 2.9,1.476 0.918,0.575 1.782,1.236 2.597,1.984 l 0,-8.449 c -1.086,-1.017 -2.275,-1.782 -3.563,-2.292 -1.29,-0.507 -2.647,-0.829 -4.073,-0.967 -0.407,-0.135 -0.797,-0.221 -1.17,-0.255 -0.373,-0.033 -0.763,-0.081 -1.172,-0.153 -0.406,-0.066 -0.796,-0.101 -1.17,-0.101 l -1.171,0 c -0.677,0 -1.374,0.035 -2.087,0.101 -0.712,0.072 -1.444,0.17 -2.188,0.306 -1.495,0.138 -2.937,0.442 -4.328,0.917 -1.391,0.474 -2.698,1.121 -3.92,1.933 -1.29,0.746 -2.46,1.663 -3.512,2.749 -1.053,1.086 -1.951,2.242 -2.697,3.464 -1.563,2.509 -2.716,5.192 -3.461,8.04 -0.749,2.851 -1.054,5.736 -0.917,8.656 0.269,2.984 1.051,5.835 2.341,8.552 1.289,2.714 3.021,5.123 5.193,7.228 1.017,1.019 2.153,1.934 3.411,2.748 1.255,0.815 2.559,1.493 3.92,2.037 1.423,0.542 2.865,0.931 4.325,1.171 1.458,0.237 2.934,0.32 4.429,0.254 L 0,0 Z" /></g><g
           transform="translate(118.054,80.9258)"
           id="g44"><path
             id="path46"
             style="fill:#ffffff;fill-opacity:1;fill-rule:nonzero;stroke:none"
             d="m 0,0 c -0.273,0 -0.527,0.018 -0.764,0.051 -0.239,0.034 -0.458,0.052 -0.661,0.052 -0.271,0.066 -0.527,0.101 -0.764,0.101 l -0.765,0 c -0.34,0 -0.677,-0.017 -1.017,-0.051 -0.34,-0.035 -0.678,-0.05 -1.018,-0.05 -0.34,-0.069 -0.68,-0.137 -1.017,-0.203 -0.342,-0.07 -0.68,-0.172 -1.019,-0.307 -1.359,-0.34 -2.614,-0.865 -3.766,-1.579 -1.157,-0.711 -2.207,-1.612 -3.158,-2.697 -0.813,-0.883 -1.526,-1.799 -2.138,-2.748 -0.609,-0.953 -1.117,-2.002 -1.527,-3.156 -0.272,-1.154 -0.476,-2.342 -0.611,-3.564 -0.137,-1.221 -0.168,-2.443 -0.101,-3.664 0.067,-1.156 0.272,-2.309 0.611,-3.463 0.339,-1.153 0.78,-2.239 1.322,-3.257 0.544,-1.087 1.222,-2.053 2.038,-2.901 0.815,-0.85 1.695,-1.646 2.647,-2.393 1.017,-0.68 2.088,-1.241 3.207,-1.681 1.119,-0.441 2.255,-0.729 3.409,-0.863 0.409,-0.07 0.815,-0.121 1.224,-0.154 0.406,-0.033 0.777,-0.05 1.12,-0.05 0.814,0 1.629,0.064 2.442,0.204 0.816,0.134 1.594,0.339 2.342,0.61 1.152,0.336 2.223,0.812 3.207,1.424 0.982,0.61 1.918,1.356 2.8,2.24 0.881,0.746 1.662,1.631 2.342,2.648 0.677,1.018 1.22,2.068 1.629,3.156 0.337,0.814 0.575,1.627 0.712,2.443 0.135,0.816 0.204,1.662 0.204,2.545 l 0,1.069 c 0,0.373 -0.035,0.729 -0.101,1.069 0.066,1.223 -0.037,2.41 -0.308,3.564 -0.271,1.151 -0.678,2.273 -1.22,3.358 -0.544,1.155 -1.222,2.189 -2.036,3.107 C 8.45,-4.224 7.567,-3.427 6.617,-2.748 5.666,-2.002 4.633,-1.409 3.511,-0.966 2.392,-0.526 1.222,-0.237 0,-0.1 L 0,0 Z m -1.222,8.248 c 1.154,0 2.323,-0.103 3.511,-0.306 1.189,-0.204 2.326,-0.51 3.412,-0.917 1.697,-0.61 3.309,-1.391 4.836,-2.341 1.527,-0.952 2.935,-2.071 4.226,-3.359 1.288,-1.291 2.424,-2.716 3.409,-4.277 0.983,-1.562 1.748,-3.224 2.292,-4.989 0.542,-1.697 0.898,-3.462 1.069,-5.293 0.169,-1.833 0.186,-3.665 0.05,-5.498 -0.137,-1.766 -0.509,-3.496 -1.119,-5.193 -0.61,-1.697 -1.392,-3.326 -2.342,-4.887 -0.952,-1.562 -2.071,-3.002 -3.359,-4.326 -1.291,-1.324 -2.717,-2.496 -4.277,-3.514 -1.493,-0.881 -3.106,-1.593 -4.835,-2.136 -1.732,-0.544 -3.48,-0.882 -5.244,-1.019 -0.34,-0.064 -0.661,-0.117 -0.967,-0.152 -0.306,-0.035 -0.627,-0.052 -0.968,-0.052 -0.34,-0.066 -0.661,-0.102 -0.967,-0.102 l -0.967,0 c -1.155,0 -2.291,0.069 -3.41,0.205 -1.119,0.137 -2.258,0.341 -3.413,0.611 -1.695,0.542 -3.342,1.271 -4.934,2.188 -1.598,0.917 -3.074,1.951 -4.429,3.105 -1.292,1.291 -2.462,2.7 -3.514,4.226 -1.053,1.525 -1.918,3.14 -2.596,4.836 -0.475,1.356 -0.849,2.714 -1.118,4.073 -0.274,1.356 -0.409,2.748 -0.409,4.173 l 0,0.611 0,0.61 c 0,0.136 0.016,0.306 0.05,0.509 0.035,0.204 0.052,0.407 0.052,0.61 0.135,1.835 0.491,3.631 1.069,5.398 0.577,1.764 1.307,3.425 2.19,4.987 0.949,1.562 2.017,3.005 3.206,4.328 1.187,1.323 2.528,2.528 4.022,3.614 1.56,1.018 3.189,1.849 4.886,2.495 1.697,0.644 3.426,1.103 5.192,1.374 0.882,0.135 1.782,0.237 2.698,0.305 0.916,0.067 1.815,0.067 2.698,0 l 0,0.103 z" /></g><g
           transform="translate(152.5249,110.1461)"
           id="g48"><path
             id="path50"
             style="fill:#ffffff;fill-opacity:1;fill-rule:nonzero;stroke:none"
             d="m 0,0 0,-46.119 c 0.069,-2.173 0.51,-4.193 1.326,-6.058 0.814,-1.869 1.935,-3.547 3.358,-5.042 0.746,-0.746 1.544,-1.406 2.394,-1.984 0.847,-0.576 1.745,-1.033 2.697,-1.373 1.017,-0.271 2.053,-0.494 3.105,-0.662 1.052,-0.171 2.121,-0.221 3.208,-0.155 1.018,0 2.017,0.118 3.001,0.358 0.985,0.238 1.918,0.592 2.801,1.068 0.952,0.474 1.832,1.035 2.648,1.682 0.813,0.643 1.559,1.374 2.239,2.188 0.678,0.813 1.271,1.662 1.781,2.545 0.51,0.882 0.933,1.763 1.275,2.647 0.337,1.017 0.61,2.051 0.813,3.105 0.204,1.051 0.304,2.12 0.304,3.207 0,0.34 -0.016,0.661 -0.05,0.967 -0.034,0.306 -0.05,0.626 -0.05,0.967 -0.068,0.679 -0.19,1.34 -0.358,1.987 -0.169,0.644 -0.356,1.271 -0.559,1.882 -0.543,2.036 -1.545,3.834 -3.003,5.397 -1.461,1.56 -3.174,2.679 -5.143,3.359 -0.95,0.406 -1.933,0.713 -2.952,0.916 -1.018,0.203 -2.035,0.338 -3.053,0.407 -2.309,0.136 -4.548,-0.136 -6.719,-0.815 -2.174,-0.678 -4.141,-1.696 -5.905,-3.054 l 0,8.553 c 1.22,0.677 2.494,1.237 3.817,1.679 1.323,0.441 2.698,0.764 4.123,0.967 0.746,0.135 1.51,0.22 2.291,0.255 0.78,0.033 1.544,0.051 2.29,0.051 0.746,0 1.511,-0.018 2.291,-0.051 0.781,-0.035 1.545,-0.12 2.291,-0.255 2.782,-0.476 5.38,-1.442 7.787,-2.901 2.411,-1.46 4.463,-3.377 6.16,-5.752 0.951,-1.086 1.765,-2.276 2.444,-3.564 0.678,-1.291 1.255,-2.613 1.732,-3.971 0.134,-0.544 0.253,-1.103 0.356,-1.678 0.103,-0.578 0.184,-1.139 0.253,-1.68 0.069,-0.612 0.119,-1.208 0.154,-1.782 0.033,-0.577 0.052,-1.137 0.052,-1.68 0,-1.698 -0.137,-3.36 -0.409,-4.99 -0.272,-1.625 -0.679,-3.224 -1.222,-4.783 -0.883,-2.716 -2.273,-5.159 -4.174,-7.333 -1.901,-2.173 -4.141,-3.934 -6.719,-5.292 -1.289,-0.678 -2.613,-1.189 -3.97,-1.528 -1.358,-0.338 -2.75,-0.575 -4.173,-0.712 -0.273,-0.065 -0.562,-0.118 -0.868,-0.152 -0.304,-0.036 -0.593,-0.053 -0.864,-0.053 l -0.865,0 -0.866,0 c -0.883,0 -1.73,0.035 -2.545,0.103 -0.814,0.067 -1.629,0.203 -2.444,0.408 -2.851,0.34 -5.499,1.273 -7.94,2.798 -2.443,1.527 -4.515,3.446 -6.21,5.752 -0.953,1.221 -1.782,2.547 -2.495,3.972 -0.713,1.425 -1.275,2.883 -1.681,4.376 L -8.246,0 C -6.493,1.752 -2.966,3.764 0,0" /></g><g
           transform="translate(206.1599,86.4041)"
           id="g52"><path
             id="path54"
             style="fill:#ffffff;fill-opacity:1;fill-rule:nonzero;stroke:none"
             d="m 0,0 0,-25.942 c 0,-1.017 0.104,-2.003 0.304,-2.952 0.203,-0.952 0.509,-1.902 0.917,-2.852 0.475,-0.881 1.032,-1.694 1.679,-2.441 0.647,-0.75 1.376,-1.392 2.189,-1.934 0.679,-0.343 1.376,-0.613 2.089,-0.816 0.712,-0.203 1.405,-0.304 2.085,-0.304 0.41,-0.069 0.815,-0.139 1.222,-0.205 0.407,-0.067 0.815,-0.101 1.223,-0.101 0.542,0.066 1.068,0.134 1.579,0.204 0.508,0.068 0.999,0.132 1.475,0.203 0.816,0.272 1.595,0.61 2.34,1.019 0.746,0.406 1.427,0.881 2.037,1.422 0.678,0.545 1.237,1.172 1.679,1.885 0.443,0.713 0.798,1.478 1.071,2.289 0.201,0.748 0.354,1.494 0.457,2.245 0.1,0.743 0.185,1.489 0.255,2.238 l 0,26.042 c 2.495,3.867 7.722,3.225 8.754,0 l 0,-28.894 c -0.067,-1.085 -0.239,-2.123 -0.507,-3.107 -0.275,-0.984 -0.648,-1.95 -1.121,-2.899 -0.407,-0.884 -0.899,-1.748 -1.476,-2.596 -0.579,-0.847 -1.238,-1.649 -1.984,-2.393 -0.75,-0.748 -1.563,-1.425 -2.445,-2.034 -0.881,-0.613 -1.797,-1.157 -2.75,-1.633 -0.881,-0.475 -1.832,-0.846 -2.85,-1.118 -1.016,-0.27 -2.071,-0.44 -3.155,-0.51 -0.611,-0.136 -1.222,-0.219 -1.832,-0.253 -0.611,-0.035 -1.224,-0.053 -1.833,-0.053 -0.611,0 -1.221,0.018 -1.834,0.053 -0.609,0.034 -1.187,0.117 -1.728,0.253 -0.953,0.07 -1.885,0.189 -2.801,0.357 -0.916,0.169 -1.818,0.459 -2.697,0.866 -1.087,0.405 -2.106,0.916 -3.055,1.527 -0.953,0.611 -1.833,1.289 -2.647,2.036 -0.68,0.745 -1.323,1.526 -1.935,2.342 -0.612,0.815 -1.12,1.662 -1.528,2.544 -0.544,1.019 -0.965,2.072 -1.271,3.157 -0.306,1.083 -0.494,2.203 -0.559,3.359 L -8.653,0 C -6.183,3.867 -1.085,3.225 0,0" /></g><g
           transform="translate(271.4729,88.7655)"
           id="g56"><path
             id="path58"
             style="fill:#ffffff;fill-opacity:1;fill-rule:nonzero;stroke:none"
             d="M 0,0 C 1.153,-0.136 2.257,-0.527 3.31,-1.17 4.361,-1.817 5.193,-2.682 5.805,-3.767 5.938,-4.242 6.058,-4.7 6.159,-5.141 6.263,-5.584 6.277,-6.042 6.213,-6.515 6.213,-6.992 6.175,-7.45 6.111,-7.89 6.042,-8.332 5.938,-8.755 5.805,-9.162 l -23.212,-30.033 24.229,0 c 3.925,-3.62 1.396,-6.981 0,-7.942 l -30.34,0 c -0.546,0.136 -1.052,0.373 -1.529,0.712 -0.473,0.34 -0.879,0.746 -1.22,1.223 -0.406,0.472 -0.712,0.981 -0.915,1.527 -0.203,0.544 -0.373,1.119 -0.509,1.729 0,1.086 0.168,2.139 0.509,3.155 0.339,1.022 0.779,1.968 1.325,2.852 l 22.093,27.897 -22.093,0 c -2.867,2.386 -2.406,5.89 0,8.042 L 0,0 Z" /></g></g></g></g></svg>